name p2_grf_mean_speed_1.0
datacolumns 13
datarows 46
range 0.0000000000 0.4500000000
endheader
time	grf_x_l_mean	grf_x_l_var	grf_y_l_mean	grf_y_l_var	grf_z_l_mean	grf_z_l_var	grf_x_r_mean	grf_x_r_var	grf_y_r_mean	grf_y_r_var	grf_z_r_mean	grf_z_r_var
0.0000000000	96.2976733830	1.0000000000	649.9662153529	1.0000000000	0.0000000000	0.0000000000	11.4561859162	1.0000000000	10.5435220694	1.0000000000	0.0000000000	0.0000000000
0.0100000000	102.4641375445	1.0000000000	640.5428316019	1.0000000000	0.0000000000	0.0000000000	20.9540984749	1.0000000000	29.5613530040	1.0000000000	0.0000000000	0.0000000000
0.0200000000	107.6744492104	1.0000000000	623.0980656136	1.0000000000	0.0000000000	0.0000000000	26.2834506862	1.0000000000	56.2641876360	1.0000000000	0.0000000000	0.0000000000
0.0300000000	110.9619818285	1.0000000000	596.4025528328	1.0000000000	0.0000000000	0.0000000000	22.9032827112	1.0000000000	89.8030139558	1.0000000000	0.0000000000	0.0000000000
0.0400000000	112.9185668869	1.0000000000	560.5018982819	1.0000000000	0.0000000000	0.0000000000	14.0422618021	1.0000000000	133.8212647595	1.0000000000	0.0000000000	0.0000000000
0.0500000000	112.6723181987	1.0000000000	515.6823402521	1.0000000000	0.0000000000	0.0000000000	-0.1837960610	1.0000000000	190.9290403658	1.0000000000	0.0000000000	0.0000000000
0.0600000000	109.6997092604	1.0000000000	462.3357646389	1.0000000000	0.0000000000	0.0000000000	-19.2968299123	1.0000000000	258.5524271893	1.0000000000	0.0000000000	0.0000000000
0.0700000000	103.8989683374	1.0000000000	402.0977176895	1.0000000000	0.0000000000	0.0000000000	-39.6881846789	1.0000000000	329.0478674620	1.0000000000	0.0000000000	0.0000000000
0.0800000000	94.0537332909	1.0000000000	336.5405142231	1.0000000000	0.0000000000	0.0000000000	-59.5768180825	1.0000000000	392.7664928809	1.0000000000	0.0000000000	0.0000000000
0.0900000000	80.8004274522	1.0000000000	268.7425663266	1.0000000000	0.0000000000	0.0000000000	-76.1827329185	1.0000000000	444.8901447399	1.0000000000	0.0000000000	0.0000000000
0.1000000000	64.3305889076	1.0000000000	203.4207950405	1.0000000000	0.0000000000	0.0000000000	-88.8994600046	1.0000000000	487.1950700593	1.0000000000	0.0000000000	0.0000000000
0.1100000000	46.5267266304	1.0000000000	144.3774155670	1.0000000000	0.0000000000	0.0000000000	-98.2143725583	1.0000000000	522.4423014382	1.0000000000	0.0000000000	0.0000000000
0.1200000000	30.2663858619	1.0000000000	94.6483838376	1.0000000000	0.0000000000	0.0000000000	-103.0019633771	1.0000000000	552.5338083481	1.0000000000	0.0000000000	0.0000000000
0.1300000000	16.8841821802	1.0000000000	55.9670832069	1.0000000000	0.0000000000	0.0000000000	-104.1473987913	1.0000000000	578.8835121776	1.0000000000	0.0000000000	0.0000000000
0.1400000000	8.1478722901	1.0000000000	28.1811522272	1.0000000000	0.0000000000	0.0000000000	-101.9724864514	1.0000000000	601.6216693926	1.0000000000	0.0000000000	0.0000000000
0.1500000000	3.0012131252	1.0000000000	10.5183120483	1.0000000000	0.0000000000	0.0000000000	-97.4607332383	1.0000000000	620.4376736825	1.0000000000	0.0000000000	0.0000000000
0.1600000000	0.3363007371	1.0000000000	1.3724047038	1.0000000000	0.0000000000	0.0000000000	-91.6537416373	1.0000000000	634.9291913943	1.0000000000	0.0000000000	0.0000000000
0.1700000000	0.0000000000	1.0000000000	0.0000000000	1.0000000000	0.0000000000	0.0000000000	-84.7888265507	1.0000000000	644.5665292945	1.0000000000	0.0000000000	0.0000000000
0.1800000000	0.0000000000	1.0000000000	0.0000000000	1.0000000000	0.0000000000	0.0000000000	-77.8663889520	1.0000000000	648.2817016808	1.0000000000	0.0000000000	0.0000000000
0.1900000000	0.0000000000	1.0000000000	0.0000000000	1.0000000000	0.0000000000	0.0000000000	-70.9583440706	1.0000000000	645.1453278546	1.0000000000	0.0000000000	0.0000000000
0.2000000000	0.0000000000	1.0000000000	0.0000000000	1.0000000000	0.0000000000	0.0000000000	-64.3352628292	1.0000000000	635.4297014862	1.0000000000	0.0000000000	0.0000000000
0.2100000000	0.0000000000	1.0000000000	0.0000000000	1.0000000000	0.0000000000	0.0000000000	-58.2382975083	1.0000000000	620.4395720743	1.0000000000	0.0000000000	0.0000000000
0.2200000000	0.0000000000	1.0000000000	0.0000000000	1.0000000000	0.0000000000	0.0000000000	-52.3539912959	1.0000000000	602.3034281817	1.0000000000	0.0000000000	0.0000000000
0.2300000000	0.0000000000	1.0000000000	0.0000000000	1.0000000000	0.0000000000	0.0000000000	-46.6669746415	1.0000000000	583.1943173869	1.0000000000	0.0000000000	0.0000000000
0.2400000000	0.0000000000	1.0000000000	0.0000000000	1.0000000000	0.0000000000	0.0000000000	-41.0751791243	1.0000000000	564.8545619268	1.0000000000	0.0000000000	0.0000000000
0.2500000000	0.0000000000	1.0000000000	0.0000000000	1.0000000000	0.0000000000	0.0000000000	-35.7260901358	1.0000000000	548.7753431336	1.0000000000	0.0000000000	0.0000000000
0.2600000000	0.0000000000	1.0000000000	0.0000000000	1.0000000000	0.0000000000	0.0000000000	-30.5909725941	1.0000000000	535.4647271853	1.0000000000	0.0000000000	0.0000000000
0.2700000000	0.0000000000	1.0000000000	0.0000000000	1.0000000000	0.0000000000	0.0000000000	-25.6831360044	1.0000000000	524.8364786160	1.0000000000	0.0000000000	0.0000000000
0.2800000000	0.0000000000	1.0000000000	0.0000000000	1.0000000000	0.0000000000	0.0000000000	-21.1162984052	1.0000000000	517.0870923102	1.0000000000	0.0000000000	0.0000000000
0.2900000000	0.0000000000	1.0000000000	0.0000000000	1.0000000000	0.0000000000	0.0000000000	-16.6639293797	1.0000000000	512.2281264835	1.0000000000	0.0000000000	0.0000000000
0.3000000000	0.0000000000	1.0000000000	0.0000000000	1.0000000000	0.0000000000	0.0000000000	-12.3806811367	1.0000000000	509.9483530850	1.0000000000	0.0000000000	0.0000000000
0.3100000000	0.0000000000	1.0000000000	0.0000000000	1.0000000000	0.0000000000	0.0000000000	-8.1866841824	1.0000000000	509.9460608596	1.0000000000	0.0000000000	0.0000000000
0.3200000000	0.0000000000	1.0000000000	0.0000000000	1.0000000000	0.0000000000	0.0000000000	-4.0490788432	1.0000000000	512.0955656182	1.0000000000	0.0000000000	0.0000000000
0.3300000000	0.0000000000	1.0000000000	0.0000000000	1.0000000000	0.0000000000	0.0000000000	0.0031013956	1.0000000000	516.0181003674	1.0000000000	0.0000000000	0.0000000000
0.3400000000	0.0000000000	1.0000000000	0.0000000000	1.0000000000	0.0000000000	0.0000000000	4.1283145345	1.0000000000	521.0327170981	1.0000000000	0.0000000000	0.0000000000
0.3500000000	0.0000000000	1.0000000000	0.0000000000	1.0000000000	0.0000000000	0.0000000000	8.2632921442	1.0000000000	526.9345742427	1.0000000000	0.0000000000	0.0000000000
0.3600000000	0.0000000000	1.0000000000	0.0000000000	1.0000000000	0.0000000000	0.0000000000	12.5310921803	1.0000000000	533.6198644093	1.0000000000	0.0000000000	0.0000000000
0.3700000000	0.0000000000	1.0000000000	0.0000000000	1.0000000000	0.0000000000	0.0000000000	16.9962228530	1.0000000000	540.6941018459	1.0000000000	0.0000000000	0.0000000000
0.3800000000	0.0000000000	1.0000000000	0.0000000000	1.0000000000	0.0000000000	0.0000000000	21.6646651847	1.0000000000	548.1196474957	1.0000000000	0.0000000000	0.0000000000
0.3900000000	0.0000000000	1.0000000000	0.0000000000	1.0000000000	0.0000000000	0.0000000000	26.7547493020	1.0000000000	556.1408692841	1.0000000000	0.0000000000	0.0000000000
0.4000000000	0.0153134945	1.0000000000	0.0328702682	1.0000000000	0.0000000000	0.0000000000	32.2532203948	1.0000000000	564.9087750013	1.0000000000	0.0000000000	0.0000000000
0.4100000000	0.0049139026	1.0000000000	0.0604526665	1.0000000000	0.0000000000	0.0000000000	38.2077485665	1.0000000000	574.4700660180	1.0000000000	0.0000000000	0.0000000000
0.4200000000	-0.0580126299	1.0000000000	0.0201841365	1.0000000000	0.0000000000	0.0000000000	44.6032624022	1.0000000000	584.8242427278	1.0000000000	0.0000000000	0.0000000000
0.4300000000	0.0000000000	1.0000000000	0.0000000000	1.0000000000	0.0000000000	0.0000000000	51.2699895855	1.0000000000	595.8851740878	1.0000000000	0.0000000000	0.0000000000
0.4400000000	0.0000000000	1.0000000000	0.0000000000	1.0000000000	0.0000000000	0.0000000000	58.1926111255	1.0000000000	607.2614842596	1.0000000000	0.0000000000	0.0000000000
0.4500000000	0.0000000000	1.0000000000	0.0000000000	1.0000000000	0.0000000000	0.0000000000	65.2794359051	1.0000000000	618.2164246419	1.0000000000	0.0000000000	0.0000000000
